<?xml version="1.0" encoding="utf-8"?>
<!-- Generator: Adobe Illustrator 27.0.0, SVG Export Plug-In . SVG Version: 6.00 Build 0)  -->
<svg version="1.1" xmlns="http://www.w3.org/2000/svg" xmlns:xlink="http://www.w3.org/1999/xlink" x="0px" y="0px"
	 viewBox="0 0 14400 14400" style="enable-background:new 0 0 14400 14400;" xml:space="preserve">
<style type="text/css">
	.st0{fill:none;stroke:#000000;stroke-miterlimit:10;}
	.st1{fill:#E8E5CA;stroke:#33312E;stroke-miterlimit:10;}
	.st2{fill:#494946;stroke:#33312E;stroke-miterlimit:10;}
	.st3{fill:#C9C5AB;}
	.st4{display:none;fill:#67C167;}
	.st5{display:none;fill:none;stroke:#67C167;stroke-miterlimit:10;}
	.st6{display:none;}
	.st7{fill:#92BBE8;}
	.st8{display:inline;fill:#EACD92;}
	.st9{display:inline;fill:#C1A36C;}
	.st10{fill:#EACD92;}
	.st11{fill:#33312E;}
	.st12{display:inline;fill:#33312E;}
	.st13{fill:none;stroke:#33312E;stroke-miterlimit:10;}
	.st14{display:inline;fill:#D37186;stroke:#33312E;stroke-miterlimit:10;}
	.st15{display:inline;fill:#FFFFFF;stroke:#33312E;stroke-miterlimit:10;}
</style>
<g id="Capa_1">
	<path class="st0" d="M7237.5,7249.5h-76c-6.6,0-12-5.4-12-12v-76c0-6.6,5.4-12,12-12h76c6.6,0,12,5.4,12,12v76
		C7249.5,7244.1,7244.1,7249.5,7237.5,7249.5z"/>
</g>
<g id="Capa_3">
	<g>
		<ellipse class="st1" cx="7199.65" cy="7238.17" rx="32.56" ry="5.63"/>
		<rect x="7161.33" y="7160.15" class="st1" width="76.65" height="76.65"/>
		<path class="st2" d="M7222.5,7230.48h-45.7c-5.06,0-9.16-4.1-9.16-9.16v-45.7c0-5.06,4.1-9.16,9.16-9.16h45.7
			c5.06,0,9.16,4.1,9.16,9.16v45.7C7231.66,7226.38,7227.56,7230.48,7222.5,7230.48z"/>
		<rect x="7161.33" y="7239.69" class="st1" width="76.65" height="9.29"/>
	</g>
	<rect x="7215.13" y="7245" class="st3" width="20.24" height="1.95"/>
	<rect x="7181.88" y="7185.43" class="st4" width="10.23" height="9.39"/>
	<rect x="7207.2" y="7185.43" class="st4" width="10.23" height="9.39"/>
	<polyline class="st4" points="7190.49,7209.35 7199.2,7218.05 7208.51,7208.74 	"/>
	<rect x="7194.39" y="7210.42" class="st4" width="10.23" height="9.39"/>
	<line class="st5" x1="7177.29" y1="7187.18" x2="7188" y2="7182.19"/>
	<line class="st5" x1="7220.64" y1="7185.97" x2="7209.93" y2="7180.98"/>
</g>
<g id="Capa_2" class="st6">
	<path class="st7" d="M7231.66,7248.42c0-17.76-14.4-32.16-32.16-32.16s-32.16,14.4-32.16,32.16c0,0.19,0.01,0.37,0.01,0.55h64.28
		C7231.65,7248.79,7231.66,7248.61,7231.66,7248.42z"/>
	<g>
		<path class="st8" d="M7201.82,7220.21h-4.63c-2.36,0-4.28-1.92-4.28-4.28v12.42c0,2.36,1.92,4.28,4.28,4.28h4.63
			c2.36,0,4.28-1.92,4.28-4.28v-12.42C7206.1,7218.29,7204.18,7220.21,7201.82,7220.21z"/>
		<path class="st9" d="M7201.82,7210.56h-4.63c-2.36,0-4.28,1.92-4.28,4.28v1.09c0,2.36,1.92,4.28,4.28,4.28h4.63
			c2.36,0,4.28-1.92,4.28-4.28v-1.09C7206.1,7212.48,7204.18,7210.56,7201.82,7210.56z"/>
	</g>
	<circle class="st10" cx="7199.5" cy="7189.05" r="28.07"/>
	<ellipse class="st11" cx="7199.65" cy="7168.61" rx="26.44" ry="11.44"/>
	<ellipse class="st12" cx="7191.1" cy="7189.05" rx="1.95" ry="6.03"/>
	<ellipse class="st12" cx="7208.2" cy="7189.05" rx="1.95" ry="6.03"/>
	<path class="st13" d="M7209.58,7206.87L7209.58,7206.87c-6.09-2.75-13.07-2.75-19.15,0l0,0"/>
	<circle class="st12" cx="7199.65" cy="7206.39" r="4.84"/>
	<path class="st13" d="M7187.94,7186.39l0.48-0.34c1.49-1.08,2.46-2.73,2.68-4.56l0,0"/>
	<path class="st13" d="M7210.9,7186.17l-0.48-0.34c-1.49-1.08-2.46-2.73-2.68-4.56l0,0"/>
	<path class="st14" d="M7199.65,7211.98c5.76,0,10.43-4.67,10.43-10.43h-20.87C7189.22,7207.31,7193.89,7211.98,7199.65,7211.98z"/>
	<path class="st15" d="M7210.16,7202.08c0,1.78-4.7,3.22-10.5,3.22c-5.8,0-10.5-1.44-10.5-3.22"/>
</g>
</svg>
